<mxfile host="app.diagrams.net" agent="Mozilla/5.0 (Windows NT 10.0; Win64; x64) AppleWebKit/537.36 (KHTML, like Gecko) Chrome/135.0.0.0 Safari/537.36" version="26.2.9">
  <diagram name="Page-1" id="hfQvv_IjIj7ofPZGfZoi">
    <mxGraphModel dx="2477" dy="820" grid="1" gridSize="10" guides="1" tooltips="1" connect="1" arrows="1" fold="1" page="1" pageScale="1" pageWidth="850" pageHeight="1100" math="0" shadow="0">
      <root>
        <mxCell id="0" />
        <mxCell id="1" parent="0" />
        <mxCell id="wOrJkK7WONCUF4BoQuTP-1" value="Queue Management System" style="shape=umlFrame;whiteSpace=wrap;html=1;pointerEvents=0;width=130;height=60;" vertex="1" parent="1">
          <mxGeometry x="-300" y="210" width="770" height="1610" as="geometry" />
        </mxCell>
        <mxCell id="wOrJkK7WONCUF4BoQuTP-2" value="Setup The Simulation" style="ellipse;whiteSpace=wrap;html=1;" vertex="1" parent="1">
          <mxGeometry x="270" y="260" width="140" height="70" as="geometry" />
        </mxCell>
        <mxCell id="wOrJkK7WONCUF4BoQuTP-3" value="Start The Simulation" style="ellipse;whiteSpace=wrap;html=1;" vertex="1" parent="1">
          <mxGeometry x="-130" y="260" width="140" height="70" as="geometry" />
        </mxCell>
        <mxCell id="wOrJkK7WONCUF4BoQuTP-4" value="Set Number of Clients" style="ellipse;whiteSpace=wrap;html=1;" vertex="1" parent="1">
          <mxGeometry x="-130" y="360" width="140" height="70" as="geometry" />
        </mxCell>
        <mxCell id="wOrJkK7WONCUF4BoQuTP-5" value="Set Maximum Service Time" style="ellipse;whiteSpace=wrap;html=1;" vertex="1" parent="1">
          <mxGeometry x="-130" y="1040" width="150" height="70" as="geometry" />
        </mxCell>
        <mxCell id="wOrJkK7WONCUF4BoQuTP-6" value="Set Minimum Service Time" style="ellipse;whiteSpace=wrap;html=1;" vertex="1" parent="1">
          <mxGeometry x="-130" y="920" width="160" height="70" as="geometry" />
        </mxCell>
        <mxCell id="wOrJkK7WONCUF4BoQuTP-7" value="Set Maximum Arrival Time" style="ellipse;whiteSpace=wrap;html=1;" vertex="1" parent="1">
          <mxGeometry x="-130" y="790" width="150" height="70" as="geometry" />
        </mxCell>
        <mxCell id="wOrJkK7WONCUF4BoQuTP-8" value="Set Simulation Time" style="ellipse;whiteSpace=wrap;html=1;" vertex="1" parent="1">
          <mxGeometry x="-130" y="550" width="140" height="70" as="geometry" />
        </mxCell>
        <mxCell id="wOrJkK7WONCUF4BoQuTP-9" value="Set&amp;nbsp; Number of Servers" style="ellipse;whiteSpace=wrap;html=1;" vertex="1" parent="1">
          <mxGeometry x="-130" y="450" width="140" height="70" as="geometry" />
        </mxCell>
        <mxCell id="wOrJkK7WONCUF4BoQuTP-10" value="User" style="shape=umlActor;verticalLabelPosition=bottom;verticalAlign=top;html=1;" vertex="1" parent="1">
          <mxGeometry x="-710" y="430" width="110" height="240" as="geometry" />
        </mxCell>
        <mxCell id="wOrJkK7WONCUF4BoQuTP-11" value="Set Minimum Arrival Time" style="ellipse;whiteSpace=wrap;html=1;" vertex="1" parent="1">
          <mxGeometry x="-130" y="670" width="140" height="70" as="geometry" />
        </mxCell>
        <mxCell id="wOrJkK7WONCUF4BoQuTP-12" value="Select Strategy" style="ellipse;whiteSpace=wrap;html=1;" vertex="1" parent="1">
          <mxGeometry x="-125" y="1150" width="140" height="70" as="geometry" />
        </mxCell>
        <mxCell id="wOrJkK7WONCUF4BoQuTP-13" value="Average Waiting Time" style="ellipse;whiteSpace=wrap;html=1;" vertex="1" parent="1">
          <mxGeometry x="-125" y="1390" width="140" height="70" as="geometry" />
        </mxCell>
        <mxCell id="wOrJkK7WONCUF4BoQuTP-14" value="Average Service Time" style="ellipse;whiteSpace=wrap;html=1;" vertex="1" parent="1">
          <mxGeometry x="-130" y="1530" width="140" height="70" as="geometry" />
        </mxCell>
        <mxCell id="wOrJkK7WONCUF4BoQuTP-15" value="Peak Hour" style="ellipse;whiteSpace=wrap;html=1;" vertex="1" parent="1">
          <mxGeometry x="-130" y="1650" width="140" height="70" as="geometry" />
        </mxCell>
        <mxCell id="wOrJkK7WONCUF4BoQuTP-16" value="Real Time Queue&lt;div&gt;Evolution&lt;/div&gt;" style="ellipse;whiteSpace=wrap;html=1;" vertex="1" parent="1">
          <mxGeometry x="-125" y="1250" width="140" height="70" as="geometry" />
        </mxCell>
        <mxCell id="wOrJkK7WONCUF4BoQuTP-17" value="" style="endArrow=none;html=1;rounded=0;entryX=0;entryY=0.5;entryDx=0;entryDy=0;exitX=1;exitY=0.3333333333333333;exitDx=0;exitDy=0;exitPerimeter=0;" edge="1" parent="1" source="wOrJkK7WONCUF4BoQuTP-10" target="wOrJkK7WONCUF4BoQuTP-3">
          <mxGeometry width="50" height="50" relative="1" as="geometry">
            <mxPoint x="-590" y="530" as="sourcePoint" />
            <mxPoint x="-120" y="205" as="targetPoint" />
          </mxGeometry>
        </mxCell>
        <mxCell id="wOrJkK7WONCUF4BoQuTP-18" value="" style="endArrow=none;html=1;rounded=0;entryX=0;entryY=0.5;entryDx=0;entryDy=0;exitX=1;exitY=0.3333333333333333;exitDx=0;exitDy=0;exitPerimeter=0;" edge="1" parent="1" source="wOrJkK7WONCUF4BoQuTP-10" target="wOrJkK7WONCUF4BoQuTP-4">
          <mxGeometry width="50" height="50" relative="1" as="geometry">
            <mxPoint x="-530" y="560" as="sourcePoint" />
            <mxPoint x="-120" y="305" as="targetPoint" />
          </mxGeometry>
        </mxCell>
        <mxCell id="wOrJkK7WONCUF4BoQuTP-19" value="" style="endArrow=none;html=1;rounded=0;entryX=0;entryY=0.5;entryDx=0;entryDy=0;exitX=1;exitY=0.3333333333333333;exitDx=0;exitDy=0;exitPerimeter=0;" edge="1" parent="1" source="wOrJkK7WONCUF4BoQuTP-10" target="wOrJkK7WONCUF4BoQuTP-9">
          <mxGeometry width="50" height="50" relative="1" as="geometry">
            <mxPoint x="-540" y="550" as="sourcePoint" />
            <mxPoint x="-120" y="405" as="targetPoint" />
          </mxGeometry>
        </mxCell>
        <mxCell id="wOrJkK7WONCUF4BoQuTP-20" value="" style="endArrow=none;html=1;rounded=0;entryX=0;entryY=0.5;entryDx=0;entryDy=0;exitX=1;exitY=0.3333333333333333;exitDx=0;exitDy=0;exitPerimeter=0;" edge="1" parent="1" source="wOrJkK7WONCUF4BoQuTP-10" target="wOrJkK7WONCUF4BoQuTP-8">
          <mxGeometry width="50" height="50" relative="1" as="geometry">
            <mxPoint x="-530" y="580" as="sourcePoint" />
            <mxPoint x="-120" y="495" as="targetPoint" />
          </mxGeometry>
        </mxCell>
        <mxCell id="wOrJkK7WONCUF4BoQuTP-21" value="" style="endArrow=none;html=1;rounded=0;entryX=0;entryY=0.5;entryDx=0;entryDy=0;exitX=1;exitY=0.3333333333333333;exitDx=0;exitDy=0;exitPerimeter=0;" edge="1" parent="1" source="wOrJkK7WONCUF4BoQuTP-10" target="wOrJkK7WONCUF4BoQuTP-11">
          <mxGeometry width="50" height="50" relative="1" as="geometry">
            <mxPoint x="-520" y="590" as="sourcePoint" />
            <mxPoint x="-120" y="595" as="targetPoint" />
          </mxGeometry>
        </mxCell>
        <mxCell id="wOrJkK7WONCUF4BoQuTP-22" value="" style="endArrow=none;html=1;rounded=0;entryX=0;entryY=0.5;entryDx=0;entryDy=0;exitX=1;exitY=0.3333333333333333;exitDx=0;exitDy=0;exitPerimeter=0;" edge="1" parent="1" source="wOrJkK7WONCUF4BoQuTP-10" target="wOrJkK7WONCUF4BoQuTP-7">
          <mxGeometry width="50" height="50" relative="1" as="geometry">
            <mxPoint x="-570" y="560" as="sourcePoint" />
            <mxPoint x="-120" y="715" as="targetPoint" />
          </mxGeometry>
        </mxCell>
        <mxCell id="wOrJkK7WONCUF4BoQuTP-23" value="" style="endArrow=none;html=1;rounded=0;entryX=0;entryY=0.5;entryDx=0;entryDy=0;exitX=1;exitY=0.3333333333333333;exitDx=0;exitDy=0;exitPerimeter=0;" edge="1" parent="1" source="wOrJkK7WONCUF4BoQuTP-10" target="wOrJkK7WONCUF4BoQuTP-6">
          <mxGeometry width="50" height="50" relative="1" as="geometry">
            <mxPoint x="-500" y="610" as="sourcePoint" />
            <mxPoint x="-120" y="835" as="targetPoint" />
          </mxGeometry>
        </mxCell>
        <mxCell id="wOrJkK7WONCUF4BoQuTP-24" value="" style="endArrow=none;html=1;rounded=0;entryX=0;entryY=0.5;entryDx=0;entryDy=0;exitX=1;exitY=0.3333333333333333;exitDx=0;exitDy=0;exitPerimeter=0;" edge="1" parent="1" source="wOrJkK7WONCUF4BoQuTP-10" target="wOrJkK7WONCUF4BoQuTP-5">
          <mxGeometry width="50" height="50" relative="1" as="geometry">
            <mxPoint x="-490" y="620" as="sourcePoint" />
            <mxPoint x="-120" y="965" as="targetPoint" />
          </mxGeometry>
        </mxCell>
        <mxCell id="wOrJkK7WONCUF4BoQuTP-25" value="" style="endArrow=none;html=1;rounded=0;entryX=0;entryY=0.5;entryDx=0;entryDy=0;exitX=1;exitY=0.3333333333333333;exitDx=0;exitDy=0;exitPerimeter=0;" edge="1" parent="1" source="wOrJkK7WONCUF4BoQuTP-10" target="wOrJkK7WONCUF4BoQuTP-12">
          <mxGeometry width="50" height="50" relative="1" as="geometry">
            <mxPoint x="-600" y="510" as="sourcePoint" />
            <mxPoint x="-120" y="1085" as="targetPoint" />
          </mxGeometry>
        </mxCell>
        <mxCell id="wOrJkK7WONCUF4BoQuTP-26" value="" style="endArrow=none;html=1;rounded=0;entryX=0;entryY=0.5;entryDx=0;entryDy=0;exitX=1;exitY=0.3333333333333333;exitDx=0;exitDy=0;exitPerimeter=0;" edge="1" parent="1" source="wOrJkK7WONCUF4BoQuTP-10" target="wOrJkK7WONCUF4BoQuTP-13">
          <mxGeometry width="50" height="50" relative="1" as="geometry">
            <mxPoint x="-470" y="640" as="sourcePoint" />
            <mxPoint x="-120" y="1215" as="targetPoint" />
          </mxGeometry>
        </mxCell>
        <mxCell id="wOrJkK7WONCUF4BoQuTP-27" value="" style="endArrow=none;html=1;rounded=0;entryX=0;entryY=0.5;entryDx=0;entryDy=0;exitX=1;exitY=0.3333333333333333;exitDx=0;exitDy=0;exitPerimeter=0;" edge="1" parent="1" source="wOrJkK7WONCUF4BoQuTP-10" target="wOrJkK7WONCUF4BoQuTP-14">
          <mxGeometry width="50" height="50" relative="1" as="geometry">
            <mxPoint x="-460" y="650" as="sourcePoint" />
            <mxPoint x="-120" y="1325" as="targetPoint" />
          </mxGeometry>
        </mxCell>
        <mxCell id="wOrJkK7WONCUF4BoQuTP-28" value="" style="endArrow=none;html=1;rounded=0;entryX=0;entryY=0.5;entryDx=0;entryDy=0;exitX=1;exitY=0.3333333333333333;exitDx=0;exitDy=0;exitPerimeter=0;" edge="1" parent="1" source="wOrJkK7WONCUF4BoQuTP-10" target="wOrJkK7WONCUF4BoQuTP-15">
          <mxGeometry width="50" height="50" relative="1" as="geometry">
            <mxPoint x="-450" y="660" as="sourcePoint" />
            <mxPoint x="-120" y="1435" as="targetPoint" />
          </mxGeometry>
        </mxCell>
        <mxCell id="wOrJkK7WONCUF4BoQuTP-29" value="" style="endArrow=none;html=1;rounded=0;entryX=0;entryY=0.5;entryDx=0;entryDy=0;exitX=1;exitY=0.3333333333333333;exitDx=0;exitDy=0;exitPerimeter=0;" edge="1" parent="1" source="wOrJkK7WONCUF4BoQuTP-10" target="wOrJkK7WONCUF4BoQuTP-16">
          <mxGeometry width="50" height="50" relative="1" as="geometry">
            <mxPoint x="-440" y="670" as="sourcePoint" />
            <mxPoint x="-120" y="1555" as="targetPoint" />
          </mxGeometry>
        </mxCell>
        <mxCell id="wOrJkK7WONCUF4BoQuTP-31" value="Validate User Input" style="ellipse;whiteSpace=wrap;html=1;" vertex="1" parent="1">
          <mxGeometry x="270" y="360" width="140" height="70" as="geometry" />
        </mxCell>
        <mxCell id="wOrJkK7WONCUF4BoQuTP-33" value="Validate User Input" style="ellipse;whiteSpace=wrap;html=1;" vertex="1" parent="1">
          <mxGeometry x="270" y="450" width="140" height="70" as="geometry" />
        </mxCell>
        <mxCell id="wOrJkK7WONCUF4BoQuTP-35" value="Validate User Input" style="ellipse;whiteSpace=wrap;html=1;" vertex="1" parent="1">
          <mxGeometry x="270" y="550" width="140" height="70" as="geometry" />
        </mxCell>
        <mxCell id="wOrJkK7WONCUF4BoQuTP-37" value="Validate User Input" style="ellipse;whiteSpace=wrap;html=1;" vertex="1" parent="1">
          <mxGeometry x="270" y="670" width="140" height="70" as="geometry" />
        </mxCell>
        <mxCell id="wOrJkK7WONCUF4BoQuTP-39" value="Validate User Input" style="ellipse;whiteSpace=wrap;html=1;" vertex="1" parent="1">
          <mxGeometry x="270" y="790" width="140" height="70" as="geometry" />
        </mxCell>
        <mxCell id="wOrJkK7WONCUF4BoQuTP-41" value="Validate User Input" style="ellipse;whiteSpace=wrap;html=1;" vertex="1" parent="1">
          <mxGeometry x="270" y="920" width="140" height="70" as="geometry" />
        </mxCell>
        <mxCell id="wOrJkK7WONCUF4BoQuTP-43" value="Validate User Input" style="ellipse;whiteSpace=wrap;html=1;" vertex="1" parent="1">
          <mxGeometry x="270" y="1040" width="140" height="70" as="geometry" />
        </mxCell>
        <mxCell id="wOrJkK7WONCUF4BoQuTP-53" value="Start The Simulation" style="ellipse;whiteSpace=wrap;html=1;" vertex="1" parent="1">
          <mxGeometry x="270" y="1250" width="140" height="70" as="geometry" />
        </mxCell>
        <mxCell id="wOrJkK7WONCUF4BoQuTP-54" value="" style="html=1;verticalAlign=bottom;endArrow=open;dashed=1;endSize=8;curved=0;rounded=0;entryX=0;entryY=0.5;entryDx=0;entryDy=0;exitX=1;exitY=0.5;exitDx=0;exitDy=0;" edge="1" parent="1" source="wOrJkK7WONCUF4BoQuTP-16" target="wOrJkK7WONCUF4BoQuTP-53">
          <mxGeometry relative="1" as="geometry">
            <mxPoint x="280" y="1085" as="sourcePoint" />
            <mxPoint x="30" y="1085" as="targetPoint" />
          </mxGeometry>
        </mxCell>
        <mxCell id="wOrJkK7WONCUF4BoQuTP-55" value="Include" style="text;html=1;align=center;verticalAlign=middle;resizable=0;points=[];autosize=1;strokeColor=none;fillColor=none;" vertex="1" parent="1">
          <mxGeometry x="90" y="1240" width="60" height="30" as="geometry" />
        </mxCell>
        <mxCell id="wOrJkK7WONCUF4BoQuTP-56" value="Start The Simulation" style="ellipse;whiteSpace=wrap;html=1;" vertex="1" parent="1">
          <mxGeometry x="270" y="1390" width="140" height="70" as="geometry" />
        </mxCell>
        <mxCell id="wOrJkK7WONCUF4BoQuTP-57" value="" style="html=1;verticalAlign=bottom;endArrow=open;dashed=1;endSize=8;curved=0;rounded=0;entryX=0;entryY=0.5;entryDx=0;entryDy=0;exitX=1;exitY=0.5;exitDx=0;exitDy=0;" edge="1" parent="1" source="wOrJkK7WONCUF4BoQuTP-13" target="wOrJkK7WONCUF4BoQuTP-56">
          <mxGeometry relative="1" as="geometry">
            <mxPoint x="15" y="1425" as="sourcePoint" />
            <mxPoint x="40" y="1325" as="targetPoint" />
          </mxGeometry>
        </mxCell>
        <mxCell id="wOrJkK7WONCUF4BoQuTP-58" value="Include" style="text;html=1;align=center;verticalAlign=middle;resizable=0;points=[];autosize=1;strokeColor=none;fillColor=none;" vertex="1" parent="1">
          <mxGeometry x="90" y="1390" width="60" height="30" as="geometry" />
        </mxCell>
        <mxCell id="wOrJkK7WONCUF4BoQuTP-59" value="Start The Simulation" style="ellipse;whiteSpace=wrap;html=1;" vertex="1" parent="1">
          <mxGeometry x="270" y="1530" width="140" height="70" as="geometry" />
        </mxCell>
        <mxCell id="wOrJkK7WONCUF4BoQuTP-60" value="" style="html=1;verticalAlign=bottom;endArrow=open;dashed=1;endSize=8;curved=0;rounded=0;entryX=0;entryY=0.5;entryDx=0;entryDy=0;exitX=1;exitY=0.5;exitDx=0;exitDy=0;" edge="1" parent="1" source="wOrJkK7WONCUF4BoQuTP-14" target="wOrJkK7WONCUF4BoQuTP-59">
          <mxGeometry relative="1" as="geometry">
            <mxPoint x="30" y="1565" as="sourcePoint" />
            <mxPoint x="55" y="1465" as="targetPoint" />
          </mxGeometry>
        </mxCell>
        <mxCell id="wOrJkK7WONCUF4BoQuTP-61" value="Include" style="text;html=1;align=center;verticalAlign=middle;resizable=0;points=[];autosize=1;strokeColor=none;fillColor=none;" vertex="1" parent="1">
          <mxGeometry x="90" y="1540" width="60" height="30" as="geometry" />
        </mxCell>
        <mxCell id="wOrJkK7WONCUF4BoQuTP-62" value="Start The Simulation" style="ellipse;whiteSpace=wrap;html=1;" vertex="1" parent="1">
          <mxGeometry x="270" y="1650" width="140" height="70" as="geometry" />
        </mxCell>
        <mxCell id="wOrJkK7WONCUF4BoQuTP-63" value="" style="html=1;verticalAlign=bottom;endArrow=open;dashed=1;endSize=8;curved=0;rounded=0;entryX=0;entryY=0.5;entryDx=0;entryDy=0;exitX=1;exitY=0.5;exitDx=0;exitDy=0;" edge="1" parent="1" source="wOrJkK7WONCUF4BoQuTP-15" target="wOrJkK7WONCUF4BoQuTP-62">
          <mxGeometry relative="1" as="geometry">
            <mxPoint x="10" y="1685" as="sourcePoint" />
            <mxPoint x="55" y="1585" as="targetPoint" />
          </mxGeometry>
        </mxCell>
        <mxCell id="wOrJkK7WONCUF4BoQuTP-64" value="Include" style="text;html=1;align=center;verticalAlign=middle;resizable=0;points=[];autosize=1;strokeColor=none;fillColor=none;" vertex="1" parent="1">
          <mxGeometry x="90" y="1660" width="60" height="30" as="geometry" />
        </mxCell>
        <mxCell id="wOrJkK7WONCUF4BoQuTP-66" value="" style="html=1;verticalAlign=bottom;endArrow=open;dashed=1;endSize=8;curved=0;rounded=0;entryX=0;entryY=0.5;entryDx=0;entryDy=0;exitX=1;exitY=0.5;exitDx=0;exitDy=0;" edge="1" parent="1" source="wOrJkK7WONCUF4BoQuTP-5" target="wOrJkK7WONCUF4BoQuTP-43">
          <mxGeometry relative="1" as="geometry">
            <mxPoint x="20" y="1075" as="sourcePoint" />
            <mxPoint x="275" y="1075" as="targetPoint" />
          </mxGeometry>
        </mxCell>
        <mxCell id="wOrJkK7WONCUF4BoQuTP-67" value="Include" style="text;html=1;align=center;verticalAlign=middle;resizable=0;points=[];autosize=1;strokeColor=none;fillColor=none;" vertex="1" parent="1">
          <mxGeometry x="90" y="1040" width="60" height="30" as="geometry" />
        </mxCell>
        <mxCell id="wOrJkK7WONCUF4BoQuTP-68" value="" style="html=1;verticalAlign=bottom;endArrow=open;dashed=1;endSize=8;curved=0;rounded=0;entryX=0;entryY=0.5;entryDx=0;entryDy=0;exitX=1;exitY=0.5;exitDx=0;exitDy=0;" edge="1" parent="1" source="wOrJkK7WONCUF4BoQuTP-6" target="wOrJkK7WONCUF4BoQuTP-41">
          <mxGeometry relative="1" as="geometry">
            <mxPoint x="40" y="970" as="sourcePoint" />
            <mxPoint x="290" y="970" as="targetPoint" />
          </mxGeometry>
        </mxCell>
        <mxCell id="wOrJkK7WONCUF4BoQuTP-69" value="" style="html=1;verticalAlign=bottom;endArrow=open;dashed=1;endSize=8;curved=0;rounded=0;entryX=0;entryY=0.5;entryDx=0;entryDy=0;exitX=1;exitY=0.5;exitDx=0;exitDy=0;" edge="1" parent="1" source="wOrJkK7WONCUF4BoQuTP-7" target="wOrJkK7WONCUF4BoQuTP-39">
          <mxGeometry relative="1" as="geometry">
            <mxPoint x="30" y="859.05" as="sourcePoint" />
            <mxPoint x="270" y="859.05" as="targetPoint" />
          </mxGeometry>
        </mxCell>
        <mxCell id="wOrJkK7WONCUF4BoQuTP-70" value="Include" style="text;html=1;align=center;verticalAlign=middle;resizable=0;points=[];autosize=1;strokeColor=none;fillColor=none;" vertex="1" parent="1">
          <mxGeometry x="90" y="920" width="60" height="30" as="geometry" />
        </mxCell>
        <mxCell id="wOrJkK7WONCUF4BoQuTP-71" value="Include" style="text;html=1;align=center;verticalAlign=middle;resizable=0;points=[];autosize=1;strokeColor=none;fillColor=none;" vertex="1" parent="1">
          <mxGeometry x="90" y="790" width="60" height="30" as="geometry" />
        </mxCell>
        <mxCell id="wOrJkK7WONCUF4BoQuTP-72" value="" style="html=1;verticalAlign=bottom;endArrow=open;dashed=1;endSize=8;curved=0;rounded=0;entryX=0;entryY=0.5;entryDx=0;entryDy=0;exitX=1;exitY=0.5;exitDx=0;exitDy=0;" edge="1" parent="1" source="wOrJkK7WONCUF4BoQuTP-11" target="wOrJkK7WONCUF4BoQuTP-37">
          <mxGeometry relative="1" as="geometry">
            <mxPoint x="5" y="640" as="sourcePoint" />
            <mxPoint x="265.0000000000032" y="640" as="targetPoint" />
          </mxGeometry>
        </mxCell>
        <mxCell id="wOrJkK7WONCUF4BoQuTP-73" value="Include" style="text;html=1;align=center;verticalAlign=middle;resizable=0;points=[];autosize=1;strokeColor=none;fillColor=none;" vertex="1" parent="1">
          <mxGeometry x="90" y="670" width="60" height="30" as="geometry" />
        </mxCell>
        <mxCell id="wOrJkK7WONCUF4BoQuTP-74" value="" style="html=1;verticalAlign=bottom;endArrow=open;dashed=1;endSize=8;curved=0;rounded=0;entryX=0;entryY=0.5;entryDx=0;entryDy=0;exitX=1;exitY=0.5;exitDx=0;exitDy=0;" edge="1" parent="1" source="wOrJkK7WONCUF4BoQuTP-8" target="wOrJkK7WONCUF4BoQuTP-35">
          <mxGeometry relative="1" as="geometry">
            <mxPoint x="30" y="635" as="sourcePoint" />
            <mxPoint x="290" y="635" as="targetPoint" />
          </mxGeometry>
        </mxCell>
        <mxCell id="wOrJkK7WONCUF4BoQuTP-75" value="Include" style="text;html=1;align=center;verticalAlign=middle;resizable=0;points=[];autosize=1;strokeColor=none;fillColor=none;" vertex="1" parent="1">
          <mxGeometry x="90" y="550" width="60" height="30" as="geometry" />
        </mxCell>
        <mxCell id="wOrJkK7WONCUF4BoQuTP-76" value="" style="html=1;verticalAlign=bottom;endArrow=open;dashed=1;endSize=8;curved=0;rounded=0;entryX=0;entryY=0.5;entryDx=0;entryDy=0;exitX=1;exitY=0.5;exitDx=0;exitDy=0;" edge="1" parent="1" source="wOrJkK7WONCUF4BoQuTP-9" target="wOrJkK7WONCUF4BoQuTP-33">
          <mxGeometry relative="1" as="geometry">
            <mxPoint x="20" y="595" as="sourcePoint" />
            <mxPoint x="280" y="595" as="targetPoint" />
          </mxGeometry>
        </mxCell>
        <mxCell id="wOrJkK7WONCUF4BoQuTP-77" value="Include" style="text;html=1;align=center;verticalAlign=middle;resizable=0;points=[];autosize=1;strokeColor=none;fillColor=none;" vertex="1" parent="1">
          <mxGeometry x="90" y="450" width="60" height="30" as="geometry" />
        </mxCell>
        <mxCell id="wOrJkK7WONCUF4BoQuTP-80" value="" style="html=1;verticalAlign=bottom;endArrow=open;dashed=1;endSize=8;curved=0;rounded=0;entryX=0;entryY=0.5;entryDx=0;entryDy=0;exitX=1;exitY=0.5;exitDx=0;exitDy=0;" edge="1" parent="1" source="wOrJkK7WONCUF4BoQuTP-4" target="wOrJkK7WONCUF4BoQuTP-31">
          <mxGeometry relative="1" as="geometry">
            <mxPoint x="20" y="495" as="sourcePoint" />
            <mxPoint x="280" y="495" as="targetPoint" />
          </mxGeometry>
        </mxCell>
        <mxCell id="wOrJkK7WONCUF4BoQuTP-81" value="Include" style="text;html=1;align=center;verticalAlign=middle;resizable=0;points=[];autosize=1;strokeColor=none;fillColor=none;" vertex="1" parent="1">
          <mxGeometry x="90" y="370" width="60" height="30" as="geometry" />
        </mxCell>
        <mxCell id="wOrJkK7WONCUF4BoQuTP-82" value="" style="html=1;verticalAlign=bottom;endArrow=open;dashed=1;endSize=8;curved=0;rounded=0;entryX=0;entryY=0.5;entryDx=0;entryDy=0;exitX=1;exitY=0.5;exitDx=0;exitDy=0;" edge="1" parent="1" source="wOrJkK7WONCUF4BoQuTP-3" target="wOrJkK7WONCUF4BoQuTP-2">
          <mxGeometry relative="1" as="geometry">
            <mxPoint x="20" y="405" as="sourcePoint" />
            <mxPoint x="280" y="405" as="targetPoint" />
          </mxGeometry>
        </mxCell>
        <mxCell id="wOrJkK7WONCUF4BoQuTP-83" value="Include" style="text;html=1;align=center;verticalAlign=middle;resizable=0;points=[];autosize=1;strokeColor=none;fillColor=none;" vertex="1" parent="1">
          <mxGeometry x="90" y="260" width="60" height="30" as="geometry" />
        </mxCell>
      </root>
    </mxGraphModel>
  </diagram>
</mxfile>
